<svg id="Calque_1" data-name="Calque 1" xmlns="http://www.w3.org/2000/svg" viewBox="0 0 326.44275 255.5982"><defs><style>.cls-1{fill:#fff;}.cls-2{fill:#aad5fd;}.cls-3{fill:#ffcbe7;}.cls-4{fill:#fffd9e;}.cls-5{fill:#fefefe;}.cls-6{fill:#060d0d;}</style></defs><g id="Cigogne"><path class="cls-1" d="M282.62361,166.53965c1.00184,2.37192,3.20928.8719,4.79507,1.44714,5.17868,1.87857,10.44945,3.50274,15.68136,5.23524,4.80174,1.59,10.02709,1.50574,14.66317,3.80039,2.03136,1.00544,4.06084,1.984,5.31334,3.92869.37334.57962,2.73732,1.44146.04532,2.377-.78757.27371.06138,1.32744.10965,2.0271.08087,1.17192.63578.72168,1.2294.44672a1.95329,1.95329,0,0,1,.87417-.06635c1.27692.06324-.2249,3.63609,2.50979,1.95431,1.332-.81915,2.91539-.49677,4.43554-.55134.15039-.9816-1.562-1.1768-.90954-2.34887.79318-1.4249,1.6462-.165,2.434-.07871,4.08183.44725,8.11322.82126,12.08157,2.319,2.58173.97443,2.57406,3.64906,4.55985,4.71891q-.69675.26547-1.39362.53124c-2.90609-3.95218-9.86221-5.29132-13.51028-2.43349,1.55942,0,2.95-.04089,4.33646.01773.66764.02824,1.66421-.42607,1.86142.661.2007,1.10622-.80263,1.03489-1.49452,1.1989-3.60408.85437-7.2172,1.1043-10.61311-.64284-1.4965-.76993-2.68966-.97572-3.94641.20675,2.54914,2.39211,5.6914,3.99518,8.80767,2.73348a14.83225,14.83225,0,0,1,7.40537-1.02737c2.58216.34237,4.85669,1.00718,7.13194-.65345.30369,3.04422.30334,3.03724-3.18561,3.21291-3.03227.15267-6.06364.3235-9.09536.48628-3.67118-.57632-7.36693-1.51207-10.84477.74082q-5.51075-1.62526-11.02138-3.25054c-3.336-2.65528-7.51413-1.45054-11.93825-3.19615,2.33708,2.84916,5.06161,1.03086,6.85384,2.49254-9.923,2.71882-19.10977.2654-28.47712-3.15887-4.38937-1.60449-9.624-.90833-14.47721-1.23083q-15.27474-1.01506-30.55119-2.00486-13.60383-.608-27.20767-1.21653c-10.54259-.4737-20.10911-4.0314-29.56584-8.51549-3.13237-1.48527-7.01782-2.77244-11.21381-.83567-4.316,1.99216-8.90132,4.731-14.12461,2.22733-.85625-.41042-1.4596-.41985-2.5191.64874-2.26485,2.2843-4.84117,4.694-8.8604,3.37779-2.17958-.71378-4.62937-.6248-6.9633-.82908-.559-.04893-1.338-.684-1.69543.16177-.39561.93624.556,1.224,1.09883,1.69646.59838.52083,1.85505.69785,1.51136,1.77a2.51534,2.51534,0,0,1-2.51115,1.667c-1.22844.037-3.46927-.03219-3.528.27609-.7938,4.16965-4.04639,2.43-6.36966,2.84833-.2133-.15159-.42265-.30965-.64721-.44182a3.08531,3.08531,0,0,0-.23108.30739l.78994.23758c.521,1.14418,2.15982,2.95536.01275,3.29577-3.5391.56111-3.79228,3.00521-4.22677,5.47779a3.4478,3.4478,0,0,1-1.86473,2.76309c-2.37532,1.23084-4.82887,2.30749-6.58259,4.50172a3.82421,3.82421,0,0,1-2.22918,1.1708c-7.19087,1.16226-14.37451,2.43428-21.60983,3.21472a10.38665,10.38665,0,0,1-6.42624-1.25559c-1.13415-.69074-2.17458-1.34289-.32117-2.42656,2.61766-1.53052,1.37777-2.50194-.506-3.36694,3.0208-4.52813,8.04125-6.67921,12.041-10.04372a2.6607,2.6607,0,0,0,.96239-1.44969c2.86044-1.6879,5.42033-3.64625,6.36455-7.06071a22.12473,22.12473,0,0,1,14.36842-10.0841c4.46482-1.03727,8.644-3.73282,13.32077-4.69579.16573,1.23511.89606,1.13376,1.868.93178,6.88077-1.43,13.775.40337,20.71432.151,4.97913-.181,10.05288.17248,15.09731-.23678-.05537-1.08642-.73022-1.28382-1.24419-1.642-2.24717-1.56627-5.48344-2.67988-6.48447-4.83077-1.34779-2.896-2.23747-.31345-2.209-.10492.27073,1.98251-.81112.78436-1.54881.86149-2.11866.22153-3.04765-2.61238-5.10409-1.9951-5.24872,1.5755-9.39323-1.345-13.76433-3.25169-.83041-.36224-1.91348-1.55029-1.86047-2.2836.2046-2.83-1.15347-2.43738-2.98117-1.90257-.70614.20665-1.68531,1.11177-2.29717.08591a1.86462,1.86462,0,0,1,.42821-2.59249c.2223.19973.316.82577.77672.23392l-.81053-.19313q-.63239-.32771-1.26488-.65536l-.63729.0002-4.59717-.234c2.85148,2.06972,1.71769,2.08175-.491,3.0767-4.68519,2.11055-10.23981-.94971-14.56687,2.93474-.77826.69866-3.04689-.52626-3.27621-1.822-.29825-1.68536,1.34431-1.2229,2.51259-1.34873,1.31032-.14113,2.89869.531,4.24516-.81052A38.32336,38.32336,0,0,1,106.13,153.141c-.52459-.20412-1.15867-.82019-.78928-1.52262a2.86428,2.86428,0,0,1,1.231-.83081c1.56843,2.1236,3.95186-.80643,5.67.92306.36363.366,1.88085.16428,2.39326-.29911,1.86012-1.68218,4.24127-1.796,6.507-2.74069-3.76508-.105-6.92856-1.936-10.26289-3.2699,2.98435-2.59926,6.01932-.78879,8.95814.016,6.3107,1.72825,11.24407,6.153,17.03346,8.95078,8.57688,4.14489,17.29537,5.47686,25.94827,1.10538,3.73-1.88441,6.54519-5.5096,9.99029-8.05385,2.02258-1.49372,4.06593-3.39251,6.95475-3.033,1.37085.1706.73535-1.31037,1.76633-1.889,4.5704-2.565,9.788-3.0256,14.42271-5.06452a24.23862,24.23862,0,0,0,8.04008-5.85406c9.11439-10.16453,16.96165-21.21021,21.62081-34.21218,2.06336-5.758,3.9471-11.52042,4.075-17.79916.0634-3.11135,2.96081-4.788,5.58888-6.04671,2.30353-1.10328,4.75145-1.90521,7.13554-2.84023,3.72568.60007,6.027-2.64792,9.24445-3.4211,3.06417-2.2478,5.99827-4.72866,9.87928-5.51315.13789.64845-.02359,1.10369,1.133,1.37171,3.48185.80686,5.95322-1.98972,9.0885-2.08114,1.8064-.05266,4.4692-1.76112,5.17594.43982.58619,1.82554-2.44974,2.27927-5.14253,3.77476,4.09109-.12172,6.73918-2.1622,9.73517-1.40025.43544.11075.58559-1.08574-.12737-1.45609a25.82334,25.82334,0,0,0-2.92842-1.08046,9.47707,9.47707,0,0,1,7.9508,1.262c.64024.38324,2.04333-.03451,1.75919,1.30049-.21422,1.00646-1.32347.825-2.16365.96721-5.20616.88128-10.56063,1.00309-16.4012,3.10481,7.08753.45451,13.153-1.198,20.01819-2.13475a10.43816,10.43816,0,0,1-7.38111,3.54513A9.00435,9.00435,0,0,0,277.366,71.074c-2.36277,1.66537-4.30685,4.79432-6.937,4.97342-4.40938.30028-3.27655,2.23066-2.98638,5.00343.24925,2.38188,2.702,5.70384-1.6522,7.30972,1.22648.54092,2.37112,1.09643,3.55345,1.55468,1.56335.60594,1.644,2.21138.8006,2.775-2.13507,1.42677-1.14367,3.30544-1.21533,5.01245-.02549.60766.2531,1.19694-.10951,1.82834-2.274,3.95973-2.47187,10.02757-.56167,14.61734.13233.318-.22529.82006-.13,1.17633.7653,2.8601-.52977,4.14917-3.08412,5.40754-2.68483,1.32264,1.95951,4.10048-.51526,5.95983-1.52982,1.14937-.52814,1.87068.4233,2.68459a26.43037,26.43037,0,0,1,2.51086,2.48674c1.59868,1.79034,3.33832,3.67723,1.3933,6.1721-1.8275,2.34415-4.35467,2.5448-6.98091,1.56319a34.13,34.13,0,0,1-7.69314-4.6135c-.60887-.43477-1.13428-1.755-2.003-.79009a2.40683,2.40683,0,0,0,.05374,2.7255,4.54682,4.54682,0,0,0,1.131,1.12751,26.24219,26.24219,0,0,1,8.18137,11.09282c.51179,1.22416.58359,2.23162-.84865,2.459-3.28993.52228-1.42325,1.47161-.21169,2.22323a79.10162,79.10162,0,0,0,15.41729,7.73565C278.65047,162.52319,281.25408,163.70479,282.62361,166.53965ZM307.851,182.67433c-1.00777-1.2656-2.0907-.369-3.15195.01464h3.14015c2.30711,2.005,5.47745,1.75475,8.24966,2.52668Q311.96988,183.945,307.851,182.67433Zm-127.56463-34.183a4.3528,4.3528,0,0,0-4.7614,1.23869c-1.689,1.59511-2.847,4.12968-5.55423,4.57643,4.38391-.21992,6.88706-3.80844,10.27353-5.8013l.13428-.01Zm29.49142-5.95493a16.9905,16.9905,0,0,0-.56631-3.29089,7.59193,7.59193,0,0,0-5.35759-4.62c-2.64279-.69553-3.55243,1.76952-4.76051,3.0629-1.75655,1.88054,1.52458,2.18493,1.845,3.6684a7.6853,7.6853,0,0,0,1.63592,3.0167c.96212,1.18727.95383,3.90257,3.26787,3.11473C208.169,146.69611,209.09311,144.3239,209.77779,142.53645Zm60.64887,34.4877c3.75728,2.88613,8.60661,2.7286,12.37392,5.38889.69865.49336,2.14276.23958,3.126-.05679a6.32327,6.32327,0,0,1,3.42682.07827c6.56061,1.47755,13.14421,2.853,19.71557,4.28332.71881.15646,1.64848.645,1.75322-.49186.09481-1.029-.89309-.38625-1.388-.55137-7.17685-2.39436-14.84994-2.62926-21.98017-5.45665C282.08567,178.08923,275.95177,178.97659,270.42666,177.02415Zm49.314,14.73235c.89337-.873,2.80346.38067,2.91543-1.02534.10619-1.33356-1.77722-1.38724-2.768-1.42987-1.26456-.05443-2.78563-1.91876-3.89434.26754-.12567.2478-.96056.3968-.38492.67782A38.4032,38.4032,0,0,0,319.7407,191.7565Z" transform="translate(-45.28039 -17.51306)"/><path class="cls-2" d="M282.62361,166.53965c-1.36953-2.83486-3.97314-4.01646-6.72151-4.98086a79.10162,79.10162,0,0,1-15.41729-7.73565c-1.21156-.75162-3.07824-1.701.21169-2.22323,1.43224-.22738,1.36044-1.23484.84865-2.459a26.24219,26.24219,0,0,0-8.18137-11.09282,4.54682,4.54682,0,0,1-1.131-1.12751,2.40683,2.40683,0,0,1-.05374-2.7255c.86872-.96494,1.39413.35532,2.003.79009a34.13,34.13,0,0,0,7.69314,4.6135c2.62624.98161,5.15341.781,6.98091-1.56319,1.945-2.49487.20538-4.38176-1.3933-6.1721a26.43037,26.43037,0,0,0-2.51086-2.48674c-.95144-.81391-1.95312-1.53522-.4233-2.68459,2.47477-1.85935-2.16957-4.63719.51526-5.95983,2.55435-1.25837,3.84942-2.54744,3.08412-5.40754-.09532-.35627.2623-.85834.13-1.17633-1.9102-4.58977-1.7123-10.65761.56167-14.61734.36261-.6314.084-1.22068.10951-1.82834.07166-1.707-.91974-3.58568,1.21533-5.01245.84345-.56363.76275-2.16907-.8006-2.775-1.18233-.45825-2.327-1.01376-3.55345-1.55468,4.35423-1.60588,1.90145-4.92784,1.6522-7.30972-.29017-2.77277-1.423-4.70315,2.98638-5.00343,2.63015-.1791,4.57423-3.30805,6.937-4.97342a9.00435,9.00435,0,0,1,4.88763-1.71455,10.43816,10.43816,0,0,0,7.38111-3.54513c-6.86516.93676-12.93066,2.58926-20.01819,2.13475,5.84057-2.10172,11.195-2.22353,16.4012-3.10481.84018-.14221,1.94943.03925,2.16365-.96721.28414-1.335-1.11895-.91725-1.75919-1.30049a9.47707,9.47707,0,0,0-7.9508-1.262,25.82334,25.82334,0,0,1,2.92842,1.08046c.713.37035.56281,1.56684.12737,1.45609-2.996-.762-5.64408,1.27853-9.73517,1.40025,2.69279-1.49549,5.72872-1.94922,5.14253-3.77476-.70674-2.20094-3.36954-.49248-5.17594-.43982-3.13528.09142-5.60665,2.888-9.0885,2.08114-1.15663-.268-.99515-.72326-1.133-1.37171,4.99262-4.25505,10.96638-7.702,16.91471-9.084,5.47483-1.27195,9.66747-4.08109,14.25868-6.46256a156.19349,156.19349,0,0,0,14.66133-8.97919c8.23827-5.50274,16.32522-11.23154,24.528-16.7882a23.992,23.992,0,0,1,6.15727-2.91923c-10.61028,18.982-30.52364,25.64075-47.78189,35.90268a305.573,305.573,0,0,0,64.341-23.85068c-2.58637,5.84639-6.56556,9.07845-12.1605,11.90379-8.17807,4.12975-16.81745,6.7932-25.554,9.2797q-1.95891.83664-3.9187,1.67379a12.58058,12.58058,0,0,0-8.74338,2.888c19.70694-1.04487,39.40254-2.22473,59.1533-2.38908-18.06706,4.8375-36.95848,1.882-55.12837,6.01614,21.19167.03,42.31187,1.5434,63.45849,2.67236-16.88406,2.05464-33.88474-.74313-50.77176,1.66949,10.87413,1.7743,21.90476,2.602,32.62038,5.37326-5.51223.0826-10.94258-1.12074-16.66086-.58273,1.03744,1.38837,2.54592,1.05216,3.7211,1.51739.03191,1.03043.762,1.42162,1.58374,1.72893-1.59947,1.62007-3.95679,1.09517-5.79674,2.111-.06234,1.174,2.03574.64828,1.68221,1.68711-.33286.9781-1.66035,1.01879-2.62933,1.3857-.89629.33939-3.58828-.919-2.03515,2.36628.76984,1.62843-2.01762,2.89022-3.68246,3.17394-3.07877.52471-3.46326,2.28422-4.30779,4.98488-.845,2.70229-1.77655,4.46907.92077,6.28683a2.12341,2.12341,0,0,1,.58525.69759c-2.13677,2.28414-1.60146,5.11015-1.73031,7.844-.16253,3.44887-2.86566,6.07226-4.29579,8.82139-1.95057,3.74957-2.98127,8.33994-6.353,11.391-1.60491,1.45226-2.05557,3.65526-3.16375,5.42621A74.86319,74.86319,0,0,1,298.7472,143.251c-1.67016,1.541-4.53757,4.34669-3.326,8.41112.6778,2.27375-1.26589,4.78347-4.192,5.4023-1.94343.411-2.876,1.40989-2.80228,3.52138C288.56326,164.49263,285.21916,165.19157,282.62361,166.53965Z" transform="translate(-45.28039 -17.51306)"/><path class="cls-3" d="M80.50324,203.18687c1.88381.865,3.1237,1.83642.506,3.36694-1.85341,1.08367-.813,1.73582.32117,2.42656a10.38665,10.38665,0,0,0,6.42624,1.25559c7.23532-.78044,14.419-2.05246,21.60983-3.21472a3.82421,3.82421,0,0,0,2.22918-1.1708c1.75372-2.19423,4.20727-3.27088,6.58259-4.50172a3.4478,3.4478,0,0,0,1.86473-2.76309c.43449-2.47258.68767-4.91668,4.22677-5.47779,2.14707-.34041.50826-2.15159-.01275-3.29577l.08908-.10409c2.32254-.41738,5.57513,1.32226,6.36893-2.84739.05869-.30828,2.29952-.23912,3.528-.27609a2.51534,2.51534,0,0,0,2.51115-1.667c.34369-1.07213-.913-1.24915-1.51136-1.77-.54278-.47242-1.49444-.76022-1.09883-1.69646.35739-.8458,1.13647-.2107,1.69543-.16177,2.33393.20428,4.78372.1153,6.9633.82908,4.01923,1.31622,6.59555-1.09349,8.8604-3.37779,1.0595-1.06859,1.66285-1.05916,2.5191-.64874,5.22329,2.50367,9.80862-.23517,14.12461-2.22733,4.196-1.93677,8.08144-.6496,11.21381.83567,9.45673,4.48409,19.02325,8.04179,29.56584,8.51549q13.6037.61131,27.20767,1.21653c-3.36641.90895-6.74616,1.68377-9.58354,3.98711A9.10191,9.10191,0,0,1,220.447,192.207a7.08535,7.08535,0,0,0-5.73351,2.32983c-2.00582,2.424-4.41217,2.77991-7.26573,3.06659a9.832,9.832,0,0,0-7.12283,4.14424c-1.73152,2.45916-4.81652,2.698-7.08068,3.46828-5.88218,2.00106-12.05682,3.72223-18.48282,3.02847-.82518-.08908-1.61114-.518-2.43692-.63017-1.365-.18545-3.16141-2.43847-3.32869,1.61011-.1215,2.94013-3.82135,3.38581-6.67475,3.40583-.54524.00382-1.4749-.863-1.569.04675-.36209,3.50044-3.52743,4.35039-5.59288,6.19762-1.49479,1.33687-3.3108.652-4.63632-.29232a6.46165,6.46165,0,0,0-5.40456-.974c1.82123,1.1197,4.98348,1.29936,3.0024,4.62061-1.62488,2.72414-5.77116,4.20225-8.18313,2.828-.77272-.44031-1.436-1.83907-2.4018-1.00915-1.14833.98683.67512,1.45552.828,2.33854a38.02356,38.02356,0,0,1-1.07847,17.5975,4.29323,4.29323,0,0,1-3.24072,3.24127c-1.74336.20888-2.55038-1.6288-3.29612-3.03094-2.25542-4.24067-3.86392-8.87313-7.52734-12.62986-1.01917,4.15188.1287,7.90124.55843,11.58923,1.08723,9.331-1.09815,18.08155-3.84,26.79645-.36938,1.17408-.70189,2.86136-2.20084,2.79085-1.48066-.06962-1.52091-1.77489-1.916-2.9563-2.85113-8.52638-3.66469-17.441-5.01991-26.25166-.69118-4.49357-1.33251-8.9948-2.297-13.50654-1.4166,15.033-.56912,30.64771-12.74763,43.085-3.82237-14.13075-.20194-27.81284.36731-41.57988-5.0103,13.5549-6.49279,28.83327-19.52658,38.71-1.35389-15.1016,5.17975-28.35385,8.32706-42.39574-6.21818,10.7453-11.94819,21.84958-25.12454,26.32221.89137-5.81959,4.04964-10.30172,6.92289-14.96773,4.18121-6.79005,8.12-13.72927,12.16567-20.60284.345-.58618.65225-1.35332-.02936-1.68188-.78227-.377-1.34373.42428-1.86127.95509C73.28021,221.685,69.69766,225.62487,65.8318,229.31a13.74188,13.74188,0,0,1-3.94047,2.6133c-5.25039,1.87429-9.81693,6.00786-16.61094,5.26949,4.64868-3.77164,8.82489-7.33107,13.18476-10.64922A151.23827,151.23827,0,0,0,70.74138,215.6449c.69923-.66314,2.45557-1.55744.46323-2.90026a5.04748,5.04748,0,0,1,1.03-1.9791C74.8668,208.108,77.36279,205.29226,80.50324,203.18687Z" transform="translate(-45.28039 -17.51306)"/><path class="cls-3" d="M110.8791,145.40088c3.33433,1.33388,6.49781,3.16492,10.26289,3.26991-2.26572.94465-4.64687,1.05851-6.507,2.74069-.51241.46339-2.02963.66514-2.39326.29911-1.71816-1.72949-4.10159,1.20054-5.67-.92306a2.86428,2.86428,0,0,0-1.231.83081c-.36939.70243.26469,1.3185.78928,1.52262a38.32336,38.32336,0,0,0,3.93492,1.08386c-1.34647,1.34147-2.93484.66939-4.24516.81052-1.16828.12583-2.81084-.33663-2.51259,1.34873.22932,1.29578,2.498,2.5207,3.27621,1.822,4.32706-3.88445,9.88168-.82419,14.56687-2.93474,2.20868-.99495,3.34247-1.007.491-3.0767l4.59717.234-.02152-.02478c.23186.56815.45991.492.68547-.00407l-.02655.02862,1.26477.65539.03367-.04072a1.86462,1.86462,0,0,0-.42807,2.59242c.61186,1.02586,1.591.12074,2.29717-.08591,1.8277-.53481,3.18577-.92743,2.98117,1.90257-.053.73331,1.03006,1.92136,1.86047,2.2836,4.3711,1.90669,8.51561,4.82719,13.76433,3.25169,2.05644-.61728,2.98543,2.21663,5.10409,1.9951.73769-.07713,1.81954,1.121,1.54881-.86149-.02847-.20853.86121-2.79108,2.209.10492,1.001,2.15089,4.2373,3.2645,6.48447,4.83077.514.35823,1.18882.55563,1.24419,1.642-5.04443.40926-10.11818.05573-15.09731.23678-6.93934.25238-13.83355-1.581-20.71432-.151-.97189.202-1.70222.30333-1.868-.93178l.01632-.005.59236-.14915c1.49168-.52782,2.98337-1.05564,5.528-1.956-3.98277-.60774-6.96961-1.546-9.96621-2.25869-7.47726-1.77846-15.02314-3.30057-22.5873-4.6731-8.0484-1.46041-16.218-.46445-24.32223-.82823-6.26327-.28112-12.61923.199-18.735-1.74383,14.05724-.4278,28.23562.44287,41.92082-3.96182,1.504-.48407,4.091.06721,2.44906-2.96182,1.11895-.3314.17339-2.29159,2.0667-2.2804,2.40979.01424,4.00357-1.86012,5.65564-3.398Zm15.23205,9.94923-.18681-.21835c-.07265.06242-.198.12081-.20314.1884s.1098.14439.17211.21715Z" transform="translate(-45.28039 -17.51306)"/><path class="cls-1" d="M110.17845,145.63683c-1.65207,1.53784-3.24585,3.4122-5.65564,3.398-1.89331-.01119-.94775,1.949-2.0667,2.2804,1.642,3.029-.94509,2.47775-2.44906,2.96182-13.6852,4.40469-27.86358,3.534-41.92082,3.96182,1.42409-2.937,4.70227-3.013,7.00458-3.40491,5.35341-.91123,10.65926-2.16916,15.9531-3.24339,7.39911-1.50143,15.02552-1.44349,22.29091-3.66492C105.64041,147.22065,107.30932,144.6073,110.17845,145.63683Z" transform="translate(-45.28039 -17.51306)"/><path class="cls-2" d="M251.65784,67.25935c-3.21743.77318-5.51877,4.02117-9.24445,3.4211C244.35128,67.62623,249.34064,65.77983,251.65784,67.25935Z" transform="translate(-45.28039 -17.51306)"/><path class="cls-1" d="M312.9831,52.42234q1.95956-.837,3.9187-1.67379c1.04673,2.258,3.2762.664,4.97663,1.606C318.80858,53.63245,315.90016,53.20656,312.9831,52.42234Z" transform="translate(-45.28039 -17.51306)"/><path class="cls-1" d="M342.21574,71.31608c-.82169-.30731-1.55183-.6985-1.58374-1.72893q4.59492.585,9.18918,1.16989C347.27825,72.41346,344.71469,70.56909,342.21574,71.31608Z" transform="translate(-45.28039 -17.51306)"/><path class="cls-3" d="M99.87114,184.63275c-.94422,3.41446-3.50411,5.37281-6.36455,7.06071A22.49818,22.49818,0,0,1,99.87114,184.63275Z" transform="translate(-45.28039 -17.51306)"/><path class="cls-2" d="M309.79965,192.82672c-1.79223-1.46168-4.51676.35662-6.85384-2.49254,4.42412,1.74561,8.60221.54087,11.93825,3.19615Q312.34176,193.17855,309.79965,192.82672Z" transform="translate(-45.28039 -17.51306)"/><path class="cls-2" d="M325.90544,196.78085c3.47784-2.25287,7.17359-1.31712,10.84477-.74082Q331.32776,196.41047,325.90544,196.78085Z" transform="translate(-45.28039 -17.51306)"/><path class="cls-4" d="M128.169,169.69872l-.59236.14915C127.69752,169.49436,127.87393,169.361,128.169,169.69872Z" transform="translate(-45.28039 -17.51306)"/><path class="cls-2" d="M209.77779,142.53645c-.68468,1.78745-1.60883,4.15966-3.93562,4.95184-2.314.78784-2.30575-1.92746-3.26787-3.11473a7.6853,7.6853,0,0,1-1.63592-3.0167c-.32042-1.48347-3.60155-1.78786-1.845-3.6684,1.20808-1.29338,2.11772-3.75843,4.76051-3.0629a7.59193,7.59193,0,0,1,5.35759,4.62A16.9905,16.9905,0,0,1,209.77779,142.53645Z" transform="translate(-45.28039 -17.51306)"/><path class="cls-2" d="M270.42666,177.02415c5.52511,1.95244,11.659,1.06508,17.0273,3.19381,7.13023,2.82739,14.80332,3.06229,21.98017,5.45665.495.16512,1.48285-.47759,1.388.55137-.10474,1.13684-1.03441.64832-1.75322.49186-6.57136-1.43036-13.155-2.80577-19.71557-4.28332a6.32327,6.32327,0,0,0-3.42682-.07827c-.98322.29637-2.42733.55015-3.126.05679C279.03327,179.75275,274.18394,179.91028,270.42666,177.02415Z" transform="translate(-45.28039 -17.51306)"/><path class="cls-2" d="M349.03118,192.34086c-2.27525,1.66063-4.54978.99582-7.13194.65345a14.83225,14.83225,0,0,0-7.40537,1.02737c-3.11627,1.2617-6.25853-.34137-8.80767-2.73348,1.25675-1.18247,2.44991-.97668,3.94641-.20675,3.39591,1.74714,7.009,1.49721,10.61311.64284.69189-.164,1.69522-.09268,1.49452-1.1989-.19721-1.08707-1.19378-.63276-1.86142-.661-1.38642-.05862-2.777-.01773-4.33646-.01773,3.64807-2.85783,10.60419-1.51869,13.51028,2.43349Z" transform="translate(-45.28039 -17.51306)"/><path class="cls-5" d="M180.24291,148.50532c-3.38511,1.99274-5.88826,5.58126-10.27217,5.80118,2.70726-.44675,3.8652-2.98132,5.55423-4.57643a4.3528,4.3528,0,0,1,4.7614-1.23869Z" transform="translate(-45.28039 -17.51306)"/><path class="cls-5" d="M319.7407,191.7565a38.4032,38.4032,0,0,1-4.13186-1.50985c-.57564-.281.25925-.43.38492-.67782,1.10871-2.1863,2.62978-.322,3.89434-.26754.99081.04263,2.87422.09631,2.768,1.42987C322.54416,192.13717,320.63407,190.8835,319.7407,191.7565Z" transform="translate(-45.28039 -17.51306)"/><path class="cls-2" d="M307.8509,182.67439q4.119,1.27065,8.238,2.54126c-2.77221-.77193-5.94255-.52171-8.24966-2.52668Z" transform="translate(-45.28039 -17.51306)"/><path class="cls-2" d="M307.8392,182.689h-3.14015c1.06125-.38364,2.14418-1.28024,3.15189-.0146Z" transform="translate(-45.28039 -17.51306)"/><path class="cls-3" d="M128.14061,153.08385l.81053.19313c-.46073.59185-.55442-.03419-.77672-.23392Z" transform="translate(-45.28039 -17.51306)"/><path class="cls-3" d="M124.257,189.81207l-.78994-.23758a3.08531,3.08531,0,0,1,.23108-.30739c.22456.13217.43391.29023.64721.44182Z" transform="translate(-45.28039 -17.51306)"/><polygon class="cls-5" points="135.006 130.978 135.098 130.982 134.963 130.992 135.006 130.978"/><path class="cls-6" d="M126.23844,152.4287l.63729-.00021.02659-.02867-.6854.00409Z" transform="translate(-45.28039 -17.51306)"/><path class="cls-4" d="M126.21692,152.40391l.6854-.00409C126.67683,152.89591,126.44878,152.97206,126.21692,152.40391Z" transform="translate(-45.28039 -17.51306)"/><path class="cls-4" d="M126.11115,155.35011l-.21784.1872c-.06231-.07276-.17728-.14956-.17211-.21715s.13049-.126.20314-.1884Z" transform="translate(-45.28039 -17.51306)"/></g></svg>